{
  "accessors": [
    {
      "bufferView": 2,
      "componentType": 5126,
      "count": 7502,
      "max": [
        0.85900002717971802,
        0.94201529026031494,
        0.92826586961746216
      ],
      "min": [
        -0.85900002717971802,
        -0.60136306285858154,
        -0.54991477727890015
      ],
      "type": "VEC3"
    },
    {
      "bufferView": 2,
      "byteOffset": 90024,
      "componentType": 5126,
      "count": 7502,
      "max": [
        0.87197911739349365,
        0.999969482421875,
        0.99756556749343872
      ],
      "min": [
        -0.87197911739349365,
        -0.58029383420944214,
        -0.70996975898742676
      ],
      "type": "VEC3"
    },
    {
      "bufferView": 3,
      "componentType": 5126,
      "count": 7502,
      "max": [
        1,
        1,
        1,
        1
      ],
      "min": [
        1,
        1,
        1,
        1
      ],
      "type": "VEC4"
    },
    {
      "bufferView": 1,
      "componentType": 5126,
      "count": 7502,
      "max": [
        0.97344791889190674,
        0.95752519369125366
      ],
      "min": [
        0.30907857418060303,
        0.2050718367099762
      ],
      "type": "VEC2"
    },
    {
      "bufferView": 0,
      "componentType": 5125,
      "count": 35040,
      "max": [
        7501
      ],
      "min": [
        0
      ],
      "type": "SCALAR"
    },
    {
      "bufferView": 2,
      "byteOffset": 180048,
      "componentType": 5126,
      "count": 5057,
      "max": [
        0.97151130437850952,
        0.84919720888137817,
        0.76194471120834351
      ],
      "min": [
        -0.97151130437850952,
        -0.92775058746337891,
        -0.91956108808517456
      ],
      "type": "VEC3"
    },
    {
      "bufferView": 2,
      "byteOffset": 240732,
      "componentType": 5126,
      "count": 5057,
      "max": [
        0.99654501676559448,
        0.9936147928237915,
        0.7837749719619751
      ],
      "min": [
        -0.99654501676559448,
        -0.99968993663787842,
        -0.99997496604919434
      ],
      "type": "VEC3"
    },
    {
      "bufferView": 3,
      "byteOffset": 120032,
      "componentType": 5126,
      "count": 5057,
      "max": [
        1,
        1,
        1,
        1
      ],
      "min": [
        1,
        1,
        1,
        1
      ],
      "type": "VEC4"
    },
    {
      "bufferView": 1,
      "byteOffset": 60016,
      "componentType": 5126,
      "count": 5057,
      "max": [
        0.87483757734298706,
        0.91750681400299072
      ],
      "min": [
        0,
        0
      ],
      "type": "VEC2"
    },
    {
      "bufferView": 0,
      "byteOffset": 140160,
      "componentType": 5125,
      "count": 22656,
      "max": [
        5056
      ],
      "min": [
        0
      ],
      "type": "SCALAR"
    },
    {
      "bufferView": 2,
      "byteOffset": 301416,
      "componentType": 5126,
      "count": 3656,
      "max": [
        0.95173168182373047,
        0.94277405738830566,
        0.91747552156448364
      ],
      "min": [
        -0.95173174142837524,
        -0.68174934387207031,
        -0.79981851577758789
      ],
      "type": "VEC3"
    },
    {
      "bufferView": 2,
      "byteOffset": 345288,
      "componentType": 5126,
      "count": 3656,
      "max": [
        0.98922628164291382,
        0.9999997615814209,
        0.99944758415222168
      ],
      "min": [
        -0.98922628164291382,
        -0.71035635471343994,
        -0.81470614671707153
      ],
      "type": "VEC3"
    },
    {
      "bufferView": 3,
      "byteOffset": 200944,
      "componentType": 5126,
      "count": 3656,
      "max": [
        1,
        1,
        1,
        1
      ],
      "min": [
        1,
        1,
        1,
        1
      ],
      "type": "VEC4"
    },
    {
      "bufferView": 1,
      "byteOffset": 100472,
      "componentType": 5126,
      "count": 3656,
      "max": [
        0.99976295232772827,
        0.96062099933624268
      ],
      "min": [
        0.28209051489830017,
        0.16698269546031952
      ],
      "type": "VEC2"
    },
    {
      "bufferView": 0,
      "byteOffset": 230784,
      "componentType": 5125,
      "count": 16896,
      "max": [
        3655
      ],
      "min": [
        0
      ],
      "type": "SCALAR"
    },
    {
      "bufferView": 2,
      "byteOffset": 389160,
      "componentType": 5126,
      "count": 2730,
      "max": [
        0.97151130437850952,
        0.67015588283538818,
        0.92826586961746216
      ],
      "min": [
        -0.97151130437850952,
        -0.7137681245803833,
        -0.83400660753250122
      ],
      "type": "VEC3"
    },
    {
      "bufferView": 2,
      "byteOffset": 421920,
      "componentType": 5126,
      "count": 2730,
      "max": [
        0.9951135516166687,
        0.96478289365768433,
        0.99968802928924561
      ],
      "min": [
        -0.9951135516166687,
        -0.83196127414703369,
        -0.85794901847839355
      ],
      "type": "VEC3"
    },
    {
      "bufferView": 3,
      "byteOffset": 259440,
      "componentType": 5126,
      "count": 2730,
      "max": [
        1,
        1,
        1,
        1
      ],
      "min": [
        1,
        1,
        1,
        1
      ],
      "type": "VEC4"
    },
    {
      "bufferView": 1,
      "byteOffset": 129720,
      "componentType": 5126,
      "count": 2730,
      "max": [
        0.95068424940109253,
        0.96062099933624268
      ],
      "min": [
        0.26878619194030762,
        0.19009310007095337
      ],
      "type": "VEC2"
    },
    {
      "bufferView": 0,
      "byteOffset": 298368,
      "componentType": 5125,
      "count": 13008,
      "max": [
        2729
      ],
      "min": [
        0
      ],
      "type": "SCALAR"
    },
    {
      "bufferView": 2,
      "byteOffset": 454680,
      "componentType": 5126,
      "count": 2762,
      "max": [
        0.93985575437545776,
        0.32049122452735901,
        0.088912717998027802
      ],
      "min": [
        -0.93985569477081299,
        -0.66238945722579956,
        -0.77905172109603882
      ],
      "type": "VEC3"
    },
    {
      "bufferView": 2,
      "byteOffset": 487824,
      "componentType": 5126,
      "count": 2762,
      "max": [
        0.99521327018737793,
        0.23334552347660065,
        -0.053896505385637283
      ],
      "min": [
        -0.99521327018737793,
        -0.5989760160446167,
        -0.82103341817855835
      ],
      "type": "VEC3"
    },
    {
      "bufferView": 3,
      "byteOffset": 303120,
      "componentType": 5126,
      "count": 2762,
      "max": [
        1,
        1,
        1,
        1
      ],
      "min": [
        1,
        1,
        1,
        1
      ],
      "type": "VEC4"
    },
    {
      "bufferView": 1,
      "byteOffset": 151560,
      "componentType": 5126,
      "count": 2762,
      "max": [
        0.6030803918838501,
        0.52629023790359497
      ],
      "min": [
        0.28942137956619263,
        0.21604825556278229
      ],
      "type": "VEC2"
    },
    {
      "bufferView": 0,
      "byteOffset": 350400,
      "componentType": 5125,
      "count": 13824,
      "max": [
        2761
      ],
      "min": [
        0
      ],
      "type": "SCALAR"
    },
    {
      "bufferView": 2,
      "byteOffset": 520968,
      "componentType": 5126,
      "count": 1121,
      "max": [
        0.21107400953769684,
        0.51008880138397217,
        0.66576981544494629
      ],
      "min": [
        -0.21107400953769684,
        0.076951161026954651,
        0.50694704055786133
      ],
      "type": "VEC3"
    },
    {
      "bufferView": 2,
      "byteOffset": 534420,
      "componentType": 5126,
      "count": 1121,
      "max": [
        0.60186523199081421,
        0.72730338573455811,
        0.99994134902954102
      ],
      "min": [
        -0.60186523199081421,
        -0.36091706156730652,
        0.67682081460952759
      ],
      "type": "VEC3"
    },
    {
      "bufferView": 3,
      "byteOffset": 347312,
      "componentType": 5126,
      "count": 1121,
      "max": [
        1,
        1,
        1,
        1
      ],
      "min": [
        1,
        1,
        1,
        1
      ],
      "type": "VEC4"
    },
    {
      "bufferView": 1,
      "byteOffset": 173656,
      "componentType": 5126,
      "count": 1121,
      "max": [
        0.89016532897949219,
        0.93884885311126709
      ],
      "min": [
        0.70400774478912354,
        0.80669546127319336
      ],
      "type": "VEC2"
    },
    {
      "bufferView": 0,
      "byteOffset": 405696,
      "componentType": 5125,
      "count": 5376,
      "max": [
        1120
      ],
      "min": [
        0
      ],
      "type": "SCALAR"
    }
  ],
  "asset": {
    "extras": {
      "author": "Smafams (https://sketchfab.com/smafams)",
      "license": "CC-BY-4.0 (http://creativecommons.org/licenses/by/4.0/)",
      "source": "https://sketchfab.com/3d-models/robo-orb-08af5b0c4b8545abbb1175d93725af16",
      "title": "Robo-Orb"
    },
    "generator": "Sketchfab-8.44.0",
    "version": "2.0"
  },
  "bufferViews": [
    {
      "buffer": 0,
      "byteLength": 427200,
      "byteOffset": 0,
      "name": "floatBufferViews",
      "target": 34963
    },
    {
      "buffer": 0,
      "byteLength": 182624,
      "byteOffset": 427200,
      "byteStride": 8,
      "name": "floatBufferViews",
      "target": 34962
    },
    {
      "buffer": 0,
      "byteLength": 547872,
      "byteOffset": 609824,
      "byteStride": 12,
      "name": "floatBufferViews",
      "target": 34962
    },
    {
      "buffer": 0,
      "byteLength": 365248,
      "byteOffset": 1157696,
      "byteStride": 16,
      "name": "floatBufferViews",
      "target": 34962
    }
  ],
  "buffers": [
    {
      "byteLength": 1522944,
      "uri": "scene.bin"
    }
  ],
  "materials": [
    {
      "doubleSided": true,
      "emissiveFactor": [
        0,
        0,
        0
      ],
      "name": "Base",
      "pbrMetallicRoughness": {
        "baseColorFactor": [
          0.0024282099999999997,
          0.010960100000000006,
          0.054480300000000009,
          1
        ],
        "metallicFactor": 0.90000000000000002,
        "roughnessFactor": 0.34999999999999998
      }
    },
    {
      "doubleSided": true,
      "emissiveFactor": [
        0,
        0,
        0
      ],
      "name": "Base_2",
      "pbrMetallicRoughness": {
        "baseColorFactor": [
          0,
          0.0040247199999999929,
          0.027320899999999999,
          1
        ],
        "metallicFactor": 0.90000000000000002,
        "roughnessFactor": 0.34999999999999998
      }
    },
    {
      "doubleSided": true,
      "emissiveFactor": [
        0,
        0,
        0
      ],
      "name": "Coat",
      "pbrMetallicRoughness": {
        "baseColorFactor": [
          1,
          0.49747599999999981,
          0.071264199999999972,
          1
        ],
        "metallicFactor": 0.5,
        "roughnessFactor": 0.40000000000000002
      }
    },
    {
      "doubleSided": true,
      "emissiveFactor": [
        0,
        0,
        0
      ],
      "name": "Coat_2",
      "pbrMetallicRoughness": {
        "baseColorFactor": [
          0.61517399999999978,
          0.18556700000000009,
          0.0056110900000000078,
          1
        ],
        "metallicFactor": 0.5,
        "roughnessFactor": 0.5
      }
    },
    {
      "doubleSided": true,
      "emissiveFactor": [
        1,
        0.65987099999999965,
        0.069738999999999926
      ],
      "name": "Butt",
      "pbrMetallicRoughness": {
        "baseColorFactor": [
          1,
          0.86206400000000005,
          0.57532899999999998,
          1
        ],
        "metallicFactor": 0,
        "roughnessFactor": 0.5
      }
    },
    {
      "doubleSided": true,
      "emissiveFactor": [
        0.99110200000000004,
        0.99110200000000004,
        0.973445
      ],
      "name": "material",
      "pbrMetallicRoughness": {
        "baseColorFactor": [
          1,
          1,
          1,
          1
        ],
        "metallicFactor": 0,
        "roughnessFactor": 0.5
      }
    }
  ],
  "meshes": [
    {
      "primitives": [
        {
          "attributes": {
            "COLOR_0": 2,
            "NORMAL": 1,
            "POSITION": 0,
            "TEXCOORD_0": 3
          },
          "indices": 4,
          "material": 0,
          "mode": 4
        }
      ]
    },
    {
      "primitives": [
        {
          "attributes": {
            "COLOR_0": 7,
            "NORMAL": 6,
            "POSITION": 5,
            "TEXCOORD_0": 8
          },
          "indices": 9,
          "material": 1,
          "mode": 4
        }
      ]
    },
    {
      "primitives": [
        {
          "attributes": {
            "COLOR_0": 12,
            "NORMAL": 11,
            "POSITION": 10,
            "TEXCOORD_0": 13
          },
          "indices": 14,
          "material": 2,
          "mode": 4
        }
      ]
    },
    {
      "primitives": [
        {
          "attributes": {
            "COLOR_0": 17,
            "NORMAL": 16,
            "POSITION": 15,
            "TEXCOORD_0": 18
          },
          "indices": 19,
          "material": 3,
          "mode": 4
        }
      ]
    },
    {
      "primitives": [
        {
          "attributes": {
            "COLOR_0": 22,
            "NORMAL": 21,
            "POSITION": 20,
            "TEXCOORD_0": 23
          },
          "indices": 24,
          "material": 4,
          "mode": 4
        }
      ]
    },
    {
      "primitives": [
        {
          "attributes": {
            "COLOR_0": 27,
            "NORMAL": 26,
            "POSITION": 25,
            "TEXCOORD_0": 28
          },
          "indices": 29,
          "material": 5,
          "mode": 4
        }
      ]
    }
  ],
  "nodes": [
    {
      "children": [
        1
      ],
      "name": "RootNode (gltf orientation matrix)",
      "rotation": [
        -0.70710678118654746,
        -0,
        -0,
        0.70710678118654757
      ]
    },
    {
      "children": [
        2
      ],
      "name": "RootNode (model correction matrix)"
    },
    {
      "children": [
        3
      ],
      "name": "root"
    },
    {
      "children": [
        4
      ],
      "matrix": [
        1,
        0,
        0,
        0,
        0,
        2.2204460492503131e-16,
        1,
        0,
        0,
        -1,
        2.2204460492503131e-16,
        0,
        0,
        0,
        0,
        1
      ],
      "name": "GLTF_SceneRootNode"
    },
    {
      "children": [
        5,
        6,
        7,
        8,
        9,
        10
      ],
      "matrix": [
        1,
        0,
        0,
        0,
        0,
        1,
        0,
        0,
        0,
        0,
        1,
        0,
        0,
        0.92540830373764038,
        0.32557141780853271,
        1
      ],
      "name": "roboOrb_finished_0"
    },
    {
      "mesh": 0,
      "name": ""
    },
    {
      "mesh": 1,
      "name": ""
    },
    {
      "mesh": 2,
      "name": ""
    },
    {
      "mesh": 3,
      "name": ""
    },
    {
      "mesh": 4,
      "name": ""
    },
    {
      "mesh": 5,
      "name": ""
    }
  ],
  "scene": 0,
  "scenes": [
    {
      "name": "OSG_Scene",
      "nodes": [
        0
      ]
    }
  ]
}

