<?xml version="1.0" encoding="UTF-8" standalone="no"?>
<!DOCTYPE svg PUBLIC "-//W3C//DTD SVG 1.1//EN" "http://www.w3.org/Graphics/SVG/1.1/DTD/svg11.dtd">
<svg version="1.1" xmlns="http://www.w3.org/2000/svg" xmlns:xlink="http://www.w3.org/1999/xlink" preserveAspectRatio="xMidYMid meet" viewBox="0 0 640 640" width="640" height="640"><defs><path d="M350.93 212.64L347.49 215.45L344.16 218.37L340.95 221.43L337.85 224.6L334.88 227.88L332.04 231.28L329.33 234.78L326.75 238.39L324.32 242.09L322.02 245.9L319.88 249.79L317.88 253.78L316.04 257.85L314.35 262L312.83 266.23L311.47 270.54L310.28 274.91L309.26 279.35L308.42 283.86L307.76 288.42L307.29 293.04L307 297.71L306.9 302.43L307 307.15L307.29 311.82L307.76 316.44L308.42 321.01L309.26 325.51L310.28 329.95L311.47 334.33L312.83 338.63L314.35 342.86L316.04 347.01L317.88 351.08L319.88 355.07L322.02 358.97L324.32 362.77L326.75 366.48L329.33 370.08L332.04 373.59L334.88 376.98L337.85 380.27L340.95 383.44L344.16 386.49L347.49 389.42L350.93 392.22L354.49 394.89L356.52 396.31L356.52 624.92L305.49 624.92L305.49 280.18L342.18 199.77L356.52 199.77L356.52 208.56L354.49 209.97L350.93 212.64ZM305.49 199.77L305.49 280.18L297.67 297.31L297.67 552.33L246.64 552.33L246.64 297.33L196.68 187.85L121.23 22.46L423.08 22.46L347.62 187.85L342.18 199.77L305.49 199.77ZM437.29 188.7L441.92 189.35L446.48 190.18L450.99 191.18L455.42 192.36L459.79 193.7L464.08 195.2L468.29 196.86L472.41 198.68L476.45 200.65L480.41 202.77L484.26 205.03L488.02 207.43L491.68 209.97L495.23 212.64L498.67 215.45L502 218.37L505.22 221.43L508.31 224.6L511.28 227.88L514.12 231.28L516.83 234.78L519.41 238.39L521.85 242.09L524.14 245.9L526.29 249.79L528.28 253.78L530.13 257.85L531.81 262L533.34 266.23L534.69 270.54L535.88 274.91L536.9 279.35L537.74 283.86L538.4 288.42L538.88 293.04L539.17 297.71L539.26 302.43L539.17 307.15L538.88 311.82L538.4 316.44L537.74 321.01L536.9 325.51L535.88 329.95L534.69 334.33L533.34 338.63L531.81 342.86L530.13 347.01L528.28 351.08L526.29 355.07L524.14 358.97L521.85 362.77L519.41 366.48L516.83 370.08L514.12 373.59L511.28 376.98L508.31 380.27L505.22 383.44L502 386.49L498.67 389.42L495.23 392.22L491.68 394.89L488.02 397.43L484.26 399.84L480.41 402.1L476.45 404.22L472.41 406.18L468.29 408L464.08 409.66L459.79 411.17L455.42 412.51L450.99 413.68L446.48 414.68L441.92 415.51L437.29 416.16L432.6 416.63L427.87 416.92L423.08 417.01L418.3 416.92L413.56 416.63L408.87 416.16L404.25 415.51L399.68 414.68L395.18 413.68L390.74 412.51L386.38 411.17L382.09 409.66L377.88 408L373.75 406.18L369.71 404.22L365.76 402.1L361.9 399.84L358.14 397.43L356.52 396.31L356.52 208.56L358.14 207.43L361.9 205.03L365.76 202.77L369.71 200.65L373.75 198.68L377.88 196.86L382.09 195.2L386.38 193.7L390.74 192.36L395.18 191.18L399.68 190.18L404.25 189.35L408.87 188.7L413.56 188.23L418.3 187.95L423.08 187.85L427.87 187.95L432.6 188.23L437.29 188.7ZM272.15 353.24L297.67 297.31L297.67 241.25L246.64 241.25L246.64 297.33L272.15 353.24Z" id="i4qKWOGXGv"></path></defs><g><g><g><use xlink:href="#i4qKWOGXGv" opacity="1" fill="#ff9f1c" fill-opacity="1"></use><g><use xlink:href="#i4qKWOGXGv" opacity="1" fill-opacity="0" stroke="#000000" stroke-width="1" stroke-opacity="0"></use></g></g></g></g></svg>